<svg width="32" height="32" viewBox="0 0 32 32" fill="none" xmlns="http://www.w3.org/2000/svg">
<path d="M22.1387 14.7307C22.9507 13.3468 23.3014 11.7404 23.14 10.144C22.9014 7.76533 21.5734 5.66267 19.4027 4.224L17.9294 6.44533C19.4214 7.43467 20.3294 8.844 20.4867 10.4107C20.5592 11.1388 20.4686 11.8739 20.2213 12.5626C19.9741 13.2513 19.5765 13.8763 19.0574 14.392L17.468 15.9813L19.6254 16.6147C25.268 18.268 25.3334 23.9427 25.3334 24H28C28 21.6147 26.7254 16.9533 22.1387 14.7307Z" fill="white"/>
<path d="M12.6666 16C15.608 16 18 13.608 18 10.6667C18 7.72533 15.608 5.33333 12.6666 5.33333C9.72529 5.33333 7.33329 7.72533 7.33329 10.6667C7.33329 13.608 9.72529 16 12.6666 16ZM12.6666 8C14.1373 8 15.3333 9.196 15.3333 10.6667C15.3333 12.1373 14.1373 13.3333 12.6666 13.3333C11.196 13.3333 9.99996 12.1373 9.99996 10.6667C9.99996 9.196 11.196 8 12.6666 8ZM14.6666 17.3333H10.6666C6.25463 17.3333 2.66663 20.9213 2.66663 25.3333V26.6667H5.33329V25.3333C5.33329 22.392 7.72529 20 10.6666 20H14.6666C17.608 20 20 22.392 20 25.3333V26.6667H22.6666V25.3333C22.6666 20.9213 19.0786 17.3333 14.6666 17.3333Z" fill="white"/>
</svg>
